<svg id="visual" viewBox="0 0 960 540" width="960" height="540" xmlns="http://www.w3.org/2000/svg" xmlns:xlink="http://www.w3.org/1999/xlink" version="1.1"><rect x="0" y="0" width="960" height="540" fill="#001220"></rect><path d="M0 388L22.8 388.5C45.7 389 91.3 390 137 383.2C182.7 376.3 228.3 361.7 274 363.3C319.7 365 365.3 383 411.2 390.2C457 397.3 503 393.7 548.8 383.5C594.7 373.3 640.3 356.7 686 356.2C731.7 355.7 777.3 371.3 823 378.5C868.7 385.7 914.3 384.3 937.2 383.7L960 383L960 541L937.2 541C914.3 541 868.7 541 823 541C777.3 541 731.7 541 686 541C640.3 541 594.7 541 548.8 541C503 541 457 541 411.2 541C365.3 541 319.7 541 274 541C228.3 541 182.7 541 137 541C91.3 541 45.7 541 22.8 541L0 541Z" fill="#fa7268"></path><path d="M0 430L22.8 421.8C45.7 413.7 91.3 397.3 137 387.5C182.7 377.7 228.3 374.3 274 377.5C319.7 380.7 365.3 390.3 411.2 389.8C457 389.3 503 378.7 548.8 373.5C594.7 368.3 640.3 368.7 686 375.5C731.7 382.3 777.3 395.7 823 404C868.7 412.3 914.3 415.7 937.2 417.3L960 419L960 541L937.2 541C914.3 541 868.7 541 823 541C777.3 541 731.7 541 686 541C640.3 541 594.7 541 548.8 541C503 541 457 541 411.2 541C365.3 541 319.7 541 274 541C228.3 541 182.7 541 137 541C91.3 541 45.7 541 22.8 541L0 541Z" fill="#ef5f67"></path><path d="M0 414L22.8 417.5C45.7 421 91.3 428 137 435C182.7 442 228.3 449 274 449.7C319.7 450.3 365.3 444.7 411.2 434.7C457 424.7 503 410.3 548.8 409.3C594.7 408.3 640.3 420.7 686 423.8C731.7 427 777.3 421 823 425.3C868.7 429.7 914.3 444.3 937.2 451.7L960 459L960 541L937.2 541C914.3 541 868.7 541 823 541C777.3 541 731.7 541 686 541C640.3 541 594.7 541 548.8 541C503 541 457 541 411.2 541C365.3 541 319.7 541 274 541C228.3 541 182.7 541 137 541C91.3 541 45.7 541 22.8 541L0 541Z" fill="#e34c67"></path><path d="M0 483L22.8 482.7C45.7 482.3 91.3 481.7 137 477.2C182.7 472.7 228.3 464.3 274 462.7C319.7 461 365.3 466 411.2 466.5C457 467 503 463 548.8 464.7C594.7 466.3 640.3 473.7 686 478C731.7 482.3 777.3 483.7 823 480.8C868.7 478 914.3 471 937.2 467.5L960 464L960 541L937.2 541C914.3 541 868.7 541 823 541C777.3 541 731.7 541 686 541C640.3 541 594.7 541 548.8 541C503 541 457 541 411.2 541C365.3 541 319.7 541 274 541C228.3 541 182.7 541 137 541C91.3 541 45.7 541 22.8 541L0 541Z" fill="#d53867"></path><path d="M0 506L22.8 505.2C45.7 504.3 91.3 502.7 137 497.7C182.7 492.7 228.3 484.3 274 480.7C319.7 477 365.3 478 411.2 477.3C457 476.7 503 474.3 548.8 479.2C594.7 484 640.3 496 686 500C731.7 504 777.3 500 823 500.3C868.7 500.7 914.3 505.3 937.2 507.7L960 510L960 541L937.2 541C914.3 541 868.7 541 823 541C777.3 541 731.7 541 686 541C640.3 541 594.7 541 548.8 541C503 541 457 541 411.2 541C365.3 541 319.7 541 274 541C228.3 541 182.7 541 137 541C91.3 541 45.7 541 22.8 541L0 541Z" fill="#c62368"></path></svg>